# xmcd
#
# Track frame offsets:
#	150
#	16167
#	47130
#	60240
#	74795
#	86585
#	100792
#	120030
#	143440
#	164065
#	183060
#	222685
#	254335
#	271477
#	296412
#	329137
#
# Disc length: 4698 seconds
#
# Revision: 3
# Processed by: cddbd v1.5.1PL0 Copyright (c) Steve Scherf et al.
# Submitted via: audiograbber 1.83.01
#
DISCID=eb125810
DTITLE=Bluesbox [CD2) - Bluesbox [CD2)
DYEAR=2000
DGENRE=Blues
TTITLE0=John Mayall's Bluesbreakers and Eric Clapton - All Your Love-1966
TTITLE1=Cuby and The Blizzards - Somebody Will Know Someday-1967
TTITLE2=Fleetwood Mac - I Loved Another Woman-1968
TTITLE3=Taj Mahal - Good Morning Miss Brown-1968
TTITLE4=Eddie Boyd and Peter Green - The Big Boat-1968
TTITLE5=Cream - Born Under A Bad Sign-1968
TTITLE6=Fleetwood Mac - Watch Out-1969
TTITLE7=Otis Spann and Fleetwood Mac - Ain't Nobody's Business-1969
TTITLE8=John Lee Hooker and Canned Heat - Whiskey And Wimmin'-1970
TTITLE9=Livin' Blues - L.B.Boogie-1971
TTITLE10=Allman Brothers - Stormy Monday (live)-1971
TTITLE11=Eric Clapton and Freddy King - Futher On Up The Road (live)-1977
TTITLE12=ZZ Top - La Grange-1973
TTITLE13=Rory Gallagher - Off The Handle-1974
TTITLE14=Albert King - I'll Play The Blues For You (Part 1 and 2)-1972
TTITLE15=Barrelhouse and Hans Dulfer - Beware-1978
EXTD=TVCD 524 920-9
EXTT0=
EXTT1=
EXTT2=
EXTT3=
EXTT4=
EXTT5=
EXTT6=
EXTT7=
EXTT8=
EXTT9=
EXTT10=
EXTT11=
EXTT12=
EXTT13=
EXTT14=
EXTT15=
PLAYORDER=
